<?xml version="1.0" standalone="no"?>
<!DOCTYPE svg PUBLIC "-//W3C//DTD SVG 20010904//EN"
 "http://www.w3.org/TR/2001/REC-SVG-20010904/DTD/svg10.dtd">
<svg version="1.0" xmlns="http://www.w3.org/2000/svg"
 width="1962.000000pt" height="1042.000000pt" viewBox="0 0 1962.000000 1042.000000"
 preserveAspectRatio="xMidYMid meet">

<g transform="translate(0.000000,1042.000000) scale(0.100000,-0.100000)"
fill="#000000" stroke="none">
<path d="M1556 8995 c-31 -11 -147 -121 -524 -497 -266 -266 -490 -495 -497
-509 -8 -15 -17 -45 -21 -68 -11 -69 14 -115 123 -223 l98 -96 185 165 c398
354 407 359 98 47 -307 -308 -328 -336 -328 -411 1 -64 33 -113 151 -230 l114
-113 348 315 c192 173 351 315 355 315 4 0 -156 -163 -355 -362 -199 -200
-367 -376 -373 -391 -15 -40 -12 -123 4 -155 22 -41 327 -339 359 -352 44 -16
114 -12 155 9 46 24 1614 1594 1636 1638 18 37 21 108 6 150 -13 32 -311 337
-352 359 -32 17 -115 18 -155 3 -15 -5 -40 -22 -56 -37 l-28 -26 -137 137
c-142 141 -181 167 -249 167 -42 0 -111 -28 -132 -53 -7 -10 -19 -17 -25 -17
-6 0 -59 48 -116 106 -139 140 -189 163 -284 129z"/>
<path d="M7425 8832 c-447 -298 -1492 -1136 -1848 -1482 -123 -119 -184 -196
-232 -290 -44 -87 -51 -118 -75 -300 -36 -268 -56 -319 -199 -497 -97 -122
-386 -420 -630 -651 l-164 -154 -941 941 -941 941 -108 -108 -107 -107 930
-930 c512 -512 930 -935 930 -941 0 -17 -472 -435 -869 -771 -190 -160 -807
-707 -1371 -1215 -1001 -902 -1026 -925 -1060 -992 -32 -63 -35 -76 -35 -155
0 -125 26 -174 161 -312 134 -135 169 -153 293 -147 103 5 159 28 227 90 92
85 1926 2088 2154 2353 260 302 770 863 785 864 6 1 435 -424 955 -944 l945
-945 107 107 108 108 -952 952 -952 952 140 147 c242 257 574 562 739 681 134
97 203 119 450 143 276 28 396 97 664 383 390 415 1188 1390 1408 1718 50 73
51 76 34 98 -10 13 -25 22 -34 20 -9 -2 -109 -101 -223 -219 -1032 -1068
-1371 -1407 -1446 -1446 -68 -35 -99 8 -55 75 50 76 240 274 867 906 355 357
674 683 708 724 l64 73 -28 29 -28 29 -115 -113 c-274 -267 -1424 -1380 -1503
-1455 -47 -45 -98 -84 -112 -88 -53 -13 -77 16 -55 69 8 19 339 357 848 865
l835 833 -27 26 c-23 24 -29 25 -49 14 -34 -18 -197 -171 -753 -706 -684 -658
-856 -818 -944 -879 -50 -35 -98 -44 -108 -21 -23 61 156 242 1222 1241 253
237 468 440 478 452 18 20 18 21 -2 41 -27 27 -37 26 -86 -7z m-1955 -1708 c0
-4 -13 -30 -29 -58 -46 -80 -70 -165 -74 -260 -3 -47 -8 -85 -13 -84 -14 4 -5
157 12 218 25 88 104 227 104 184z m760 -763 c0 -14 -159 -88 -215 -100 -82
-17 -205 -18 -205 -1 0 6 35 10 84 10 93 0 175 21 266 70 60 32 70 35 70 21z"/>
<path d="M965 8651 c-11 -5 -40 -30 -64 -56 -42 -46 -43 -49 -39 -102 3 -32
11 -61 22 -71 15 -16 23 -10 124 91 l107 108 -24 20 c-24 20 -88 25 -126 10z"/>
<path d="M15609 8116 c-365 -101 -481 -575 -204 -835 111 -104 233 -148 375
-137 295 22 501 277 460 569 -27 187 -177 353 -364 403 -63 17 -205 17 -267 0z"/>
<path d="M9780 7670 l0 -380 380 0 380 0 0 -2260 0 -2260 -380 0 -380 0 0
-375 0 -375 1220 0 1220 0 0 375 0 375 -382 2 -383 3 -3 987 -2 988 972 2 973
3 3 378 2 377 -975 0 -975 0 0 890 0 890 1130 0 1130 0 0 -530 0 -530 370 0
370 0 0 910 0 910 -2335 0 -2335 0 0 -380z"/>
<path d="M18153 7233 l-413 -378 0 -322 0 -323 -270 0 -270 0 0 -365 0 -365
269 0 269 0 5 -1252 c3 -789 9 -1297 16 -1373 14 -158 38 -304 60 -368 118
-341 443 -536 894 -537 159 0 381 35 545 85 l82 26 0 375 c0 297 -3 375 -12
370 -108 -44 -285 -76 -422 -76 -191 0 -268 39 -300 151 -32 114 -36 256 -36
1430 l0 1169 385 0 385 0 0 365 0 365 -385 0 -385 0 -2 700 -3 701 -412 -378z"/>
<path d="M14710 5845 l0 -365 330 0 330 0 0 -1365 0 -1365 -330 0 -330 0 0
-365 0 -365 1060 0 1060 0 0 365 0 365 -320 0 -320 0 0 1730 0 1730 -740 0
-740 0 0 -365z"/>
<path d="M7175 3984 c-44 -23 -1613 -1592 -1636 -1636 -21 -41 -25 -111 -9
-155 13 -32 311 -337 352 -359 32 -16 115 -19 155 -4 15 6 191 174 391 373
199 199 362 359 362 355 0 -4 -142 -164 -315 -355 l-315 -348 113 -114 c117
-118 166 -150 230 -151 75 0 103 21 411 328 317 315 317 311 -7 -53 l-205
-230 92 -94 c121 -124 168 -145 261 -120 34 9 112 83 528 497 269 268 495 499
502 513 8 15 17 45 21 68 11 71 -13 114 -136 236 -60 60 -110 115 -110 121 0
6 7 18 17 25 25 21 53 90 53 132 0 68 -26 107 -167 249 l-137 137 26 28 c15
16 32 41 37 56 15 40 14 123 -3 155 -22 41 -327 339 -359 352 -41 15 -117 12
-152 -6z"/>
<path d="M7610 1904 l-105 -105 25 -21 c20 -16 35 -19 79 -16 50 5 58 9 103
56 42 45 48 56 48 94 0 44 -17 89 -35 95 -6 2 -57 -44 -115 -103z"/>
</g>
</svg>
